<mxfile host="app.diagrams.net" agent="Mozilla/5.0 (Windows NT 10.0; Win64; x64; rv:136.0) Gecko/20100101 Firefox/136.0" version="26.2.13">
  <diagram name="Page-1" id="_sZUl4JTG9m2CbohpEIC">
    <mxGraphModel dx="985" dy="569" grid="1" gridSize="10" guides="1" tooltips="1" connect="1" arrows="1" fold="1" page="1" pageScale="1" pageWidth="850" pageHeight="1100" background="light-dark(#FFFFFF,transparent)" math="0" shadow="0">
      <root>
        <mxCell id="0" />
        <mxCell id="1" parent="0" />
        <mxCell id="BZPCGvNJAek9J5CKSZ---22" value="&lt;div&gt;No se tiene en cuenta&lt;/div&gt;" style="rounded=0;whiteSpace=wrap;html=1;labelBackgroundColor=none;fillColor=light-dark(#f9f9f9, #ededed);strokeColor=#666666;strokeWidth=1;horizontal=1;align=center;verticalAlign=top;labelPosition=center;verticalLabelPosition=bottom;fontSize=11;fontFamily=Consolas, Courier New, monospace;spacing=-3;fontColor=#4D4D4D;" vertex="1" parent="1">
          <mxGeometry x="40" y="242" width="160" height="105" as="geometry" />
        </mxCell>
        <mxCell id="BZPCGvNJAek9J5CKSZ---1" value="1" style="whiteSpace=wrap;html=1;aspect=fixed;rounded=1;gradientColor=none;fillColor=light-dark(#fbefef, #ededed);shadow=0;gradientDirection=radial;strokeColor=light-dark(#fe4d4d, #ededed);perimeterSpacing=0;glass=0;fontColor=light-dark(#fe4d4d, #ededed);" vertex="1" parent="1">
          <mxGeometry x="80" y="40" width="80" height="80" as="geometry" />
        </mxCell>
        <mxCell id="BZPCGvNJAek9J5CKSZ---2" value="2" style="whiteSpace=wrap;html=1;aspect=fixed;rounded=1;fillColor=light-dark(#e9fbe7, #ededed);strokeColor=light-dark(#678d61, #ededed);fontColor=light-dark(#678d61, #ededed);" vertex="1" parent="1">
          <mxGeometry x="280" y="40" width="80" height="80" as="geometry" />
        </mxCell>
        <mxCell id="BZPCGvNJAek9J5CKSZ---3" value="3" style="whiteSpace=wrap;html=1;aspect=fixed;rounded=1;fillColor=light-dark(#e4effb, #ededed);strokeColor=light-dark(#5086d4, #ededed);fontColor=light-dark(#5086d4, #ededed);" vertex="1" parent="1">
          <mxGeometry x="480" y="40" width="80" height="80" as="geometry" />
        </mxCell>
        <mxCell id="BZPCGvNJAek9J5CKSZ---4" value="4" style="html=1;aspect=fixed;rounded=1;fillColor=light-dark(#f2eae0, #ededed);strokeColor=light-dark(#bc8d56, #ededed);fontColor=light-dark(#bc8d56, #ededed);labelBackgroundColor=none;labelBorderColor=none;textShadow=0;whiteSpace=wrap;" vertex="1" parent="1">
          <mxGeometry x="680" y="40" width="80" height="80" as="geometry" />
        </mxCell>
        <mxCell id="BZPCGvNJAek9J5CKSZ---6" value="&lt;div align=&quot;center&quot; style=&quot;color: rgb(59, 59, 59); font-family: Consolas, &amp;quot;Courier New&amp;quot;, monospace; font-weight: normal; font-size: 14px; line-height: 19px; white-space: pre;&quot;&gt;&lt;div&gt;&lt;span style=&quot;color: rgb(0, 128, 0);&quot;&gt;&lt;font style=&quot;font-size: 11px;&quot;&gt;&amp;lt;!-- Inline style --&amp;gt;&lt;/font&gt;&lt;/span&gt;&lt;/div&gt;&lt;div&gt;&lt;span style=&quot;color: rgb(0, 128, 0);&quot;&gt;&lt;font style=&quot;font-size: 11px;&quot;&gt;&amp;lt;!-- no tiene CSS --&amp;gt;&lt;/font&gt;&lt;/span&gt;&lt;/div&gt;&lt;div&gt;&lt;font style=&quot;font-size: 11px;&quot;&gt;&lt;span style=&quot;color: rgb(128, 0, 0);&quot;&gt;&amp;lt;div&lt;/span&gt;&lt;span style=&quot;color: rgb(59, 59, 59);&quot;&gt; &lt;/span&gt;&lt;span style=&quot;color: rgb(229, 0, 0);&quot;&gt;style&lt;/span&gt;&lt;span style=&quot;color: rgb(59, 59, 59);&quot;&gt;=&lt;/span&gt;&lt;span style=&quot;color: rgb(0, 0, 255);&quot;&gt;&quot;&lt;/span&gt;&lt;span style=&quot;color: rgb(0, 0, 255);&quot;&gt;color: red;&quot;&lt;/span&gt;&lt;span style=&quot;color: rgb(128, 0, 0);&quot;&gt;&amp;gt;&lt;/span&gt;&lt;span style=&quot;color: rgb(59, 59, 59);&quot;&gt;&lt;br&gt;&lt;/span&gt;&lt;/font&gt;&lt;/div&gt;&lt;div&gt;&lt;font style=&quot;font-size: 11px;&quot;&gt;&lt;span style=&quot;color: rgb(59, 59, 59);&quot;&gt;   This text is red.&lt;/span&gt;&lt;span style=&quot;color: rgb(128, 0, 0);&quot;&gt;&amp;lt;/div&amp;gt;&lt;/span&gt;&lt;/font&gt;&lt;/div&gt;&lt;/div&gt;" style="text;html=1;align=center;verticalAlign=middle;resizable=0;points=[];autosize=1;strokeColor=none;fillColor=none;labelBackgroundColor=none;" vertex="1" parent="1">
          <mxGeometry x="30" y="128" width="180" height="90" as="geometry" />
        </mxCell>
        <mxCell id="BZPCGvNJAek9J5CKSZ---7" value="&lt;font face=&quot;Consolas, Courier New, monospace&quot;&gt;Inline style&lt;/font&gt;" style="text;html=1;align=center;verticalAlign=middle;resizable=0;points=[];autosize=1;strokeColor=none;fillColor=none;fontSize=11;" vertex="1" parent="1">
          <mxGeometry x="70" y="5" width="100" height="30" as="geometry" />
        </mxCell>
        <mxCell id="BZPCGvNJAek9J5CKSZ---8" value="&lt;font face=&quot;Consolas, Courier New, monospace&quot;&gt;ID selector&lt;/font&gt;" style="text;html=1;align=center;verticalAlign=middle;resizable=0;points=[];autosize=1;strokeColor=none;fillColor=none;fontSize=11;" vertex="1" parent="1">
          <mxGeometry x="275" y="5" width="90" height="30" as="geometry" />
        </mxCell>
        <mxCell id="BZPCGvNJAek9J5CKSZ---9" value="&lt;div&gt;&lt;font face=&quot;Consolas, Courier New, monospace&quot;&gt;Class, attribute and&amp;nbsp;&lt;/font&gt;&lt;/div&gt;&lt;div&gt;&lt;font face=&quot;Consolas, Courier New, monospace&quot;&gt;pseudo-class selector&lt;/font&gt;&lt;/div&gt;" style="text;html=1;align=center;verticalAlign=middle;resizable=0;points=[];autosize=1;strokeColor=none;fillColor=none;fontSize=11;" vertex="1" parent="1">
          <mxGeometry x="445" width="150" height="40" as="geometry" />
        </mxCell>
        <mxCell id="BZPCGvNJAek9J5CKSZ---10" value="&lt;div&gt;&lt;font face=&quot;Consolas, Courier New, monospace&quot;&gt;Type and&amp;nbsp;&lt;/font&gt;&lt;/div&gt;&lt;div&gt;&lt;font face=&quot;Consolas, Courier New, monospace&quot;&gt;pseudo-type selector&lt;/font&gt;&lt;/div&gt;" style="text;html=1;align=center;verticalAlign=middle;resizable=0;points=[];autosize=1;strokeColor=none;fillColor=none;fontSize=11;" vertex="1" parent="1">
          <mxGeometry x="650" width="140" height="40" as="geometry" />
        </mxCell>
        <mxCell id="BZPCGvNJAek9J5CKSZ---11" value="&lt;div align=&quot;center&quot; style=&quot;color: rgb(59, 59, 59); font-family: Consolas, &amp;quot;Courier New&amp;quot;, monospace; font-weight: normal; font-size: 14px; line-height: 19px; white-space: pre;&quot;&gt;&lt;div&gt;&lt;div style=&quot;color: rgb(59, 59, 59); font-family: Consolas, &amp;quot;Courier New&amp;quot;, monospace; font-weight: normal; font-size: 14px; line-height: 19px; white-space: pre;&quot;&gt;&lt;div&gt;&lt;span style=&quot;color: rgb(0, 128, 0);&quot;&gt;&lt;font style=&quot;font-size: 11px;&quot;&gt;&amp;lt;!-- Type selector --&amp;gt;&lt;/font&gt;&lt;/span&gt;&lt;/div&gt;&lt;/div&gt;&lt;/div&gt;&lt;div&gt;&lt;font style=&quot;font-size: 11px;&quot;&gt;&lt;span style=&quot;color: rgb(128, 0, 0);&quot;&gt;p&lt;/span&gt;&lt;span style=&quot;color: rgb(59, 59, 59);&quot;&gt; {&lt;/span&gt;&lt;span style=&quot;color: rgb(229, 0, 0);&quot;&gt;color&lt;/span&gt;&lt;span style=&quot;color: rgb(59, 59, 59);&quot;&gt;: &lt;/span&gt;&lt;span style=&quot;color: rgb(4, 81, 165);&quot;&gt;blue&lt;/span&gt;&lt;span style=&quot;color: rgb(59, 59, 59);&quot;&gt;;&lt;/span&gt;&lt;span style=&quot;color: rgb(59, 59, 59);&quot;&gt;}&lt;/span&gt;&lt;/font&gt;&lt;/div&gt;&lt;div&gt;&lt;div style=&quot;color: rgb(59, 59, 59); font-family: Consolas, &amp;quot;Courier New&amp;quot;, monospace; font-weight: normal; font-size: 14px; line-height: 19px; white-space: pre;&quot;&gt;&lt;div&gt;&lt;font style=&quot;font-size: 11px;&quot;&gt;&lt;span style=&quot;color: rgb(128, 0, 0);&quot;&gt;&amp;lt;p&lt;/span&gt;&lt;span style=&quot;color: rgb(128, 0, 0);&quot;&gt;&amp;gt;&lt;/span&gt;&lt;span style=&quot;color: rgb(59, 59, 59);&quot;&gt;I am a paragraph&lt;/span&gt;&lt;span style=&quot;color: rgb(128, 0, 0);&quot;&gt;&amp;lt;/p&amp;gt;&lt;/span&gt;&lt;/font&gt;&lt;/div&gt;&lt;/div&gt;&lt;/div&gt;&lt;/div&gt;" style="text;html=1;align=center;verticalAlign=middle;resizable=0;points=[];autosize=1;strokeColor=none;fillColor=none;labelBackgroundColor=none;" vertex="1" parent="1">
          <mxGeometry x="640" y="138" width="160" height="70" as="geometry" />
        </mxCell>
        <mxCell id="BZPCGvNJAek9J5CKSZ---12" value="&lt;div align=&quot;center&quot; style=&quot;color: rgb(59, 59, 59); font-family: Consolas, &amp;quot;Courier New&amp;quot;, monospace; font-weight: normal; font-size: 14px; line-height: 19px; white-space: pre;&quot;&gt;&lt;div&gt;&lt;div style=&quot;color: rgb(59, 59, 59); font-family: Consolas, &amp;quot;Courier New&amp;quot;, monospace; font-weight: normal; font-size: 14px; line-height: 19px; white-space: pre;&quot;&gt;&lt;div&gt;&lt;span style=&quot;color: rgb(0, 128, 0);&quot;&gt;&lt;font style=&quot;font-size: 11px;&quot;&gt;&amp;lt;!-- Pseudo-type selector --&amp;gt;&lt;/font&gt;&lt;/span&gt;&lt;/div&gt;&lt;/div&gt;&lt;/div&gt;&lt;div&gt;&lt;font style=&quot;font-size: 11px;&quot;&gt;&lt;span style=&quot;color: rgb(128, 0, 0);&quot;&gt;p&lt;/span&gt;&lt;span style=&quot;color: rgb(59, 59, 59);&quot;&gt;::after {&lt;/span&gt;&lt;span style=&quot;color: rgb(229, 0, 0);&quot;&gt;color&lt;/span&gt;&lt;span style=&quot;color: rgb(59, 59, 59);&quot;&gt;: &lt;/span&gt;&lt;span style=&quot;color: rgb(4, 81, 165);&quot;&gt;blue&lt;/span&gt;&lt;span style=&quot;color: rgb(59, 59, 59);&quot;&gt;;&lt;/span&gt;&lt;span style=&quot;color: rgb(59, 59, 59);&quot;&gt;}&lt;/span&gt;&lt;/font&gt;&lt;/div&gt;&lt;div&gt;&lt;div style=&quot;color: rgb(59, 59, 59); font-family: Consolas, &amp;quot;Courier New&amp;quot;, monospace; font-weight: normal; font-size: 14px; line-height: 19px; white-space: pre;&quot;&gt;&lt;div&gt;&lt;font style=&quot;font-size: 11px;&quot;&gt;&lt;span style=&quot;color: rgb(128, 0, 0);&quot;&gt;&amp;lt;p&lt;/span&gt;&lt;span style=&quot;color: rgb(128, 0, 0);&quot;&gt;&amp;gt;&lt;/span&gt;&lt;span style=&quot;color: rgb(59, 59, 59);&quot;&gt;I am a paragraph&lt;/span&gt;&lt;span style=&quot;color: rgb(128, 0, 0);&quot;&gt;&amp;lt;/p&amp;gt;&lt;/span&gt;&lt;/font&gt;&lt;/div&gt;&lt;/div&gt;&lt;/div&gt;&lt;/div&gt;" style="text;html=1;align=center;verticalAlign=middle;resizable=0;points=[];autosize=1;strokeColor=none;fillColor=none;labelBackgroundColor=none;" vertex="1" parent="1">
          <mxGeometry x="630" y="220" width="200" height="70" as="geometry" />
        </mxCell>
        <mxCell id="BZPCGvNJAek9J5CKSZ---13" value="&lt;div align=&quot;center&quot; style=&quot;color: rgb(59, 59, 59); font-family: Consolas, &amp;quot;Courier New&amp;quot;, monospace; font-weight: normal; font-size: 14px; line-height: 19px; white-space: pre;&quot;&gt;&lt;div&gt;&lt;div style=&quot;color: rgb(59, 59, 59); font-family: Consolas, &amp;quot;Courier New&amp;quot;, monospace; font-weight: normal; font-size: 14px; line-height: 19px; white-space: pre;&quot;&gt;&lt;div&gt;&lt;span style=&quot;color: rgb(0, 128, 0);&quot;&gt;&lt;font style=&quot;font-size: 11px;&quot;&gt;&amp;lt;!-- Class selector --&amp;gt;&lt;/font&gt;&lt;/span&gt;&lt;/div&gt;&lt;/div&gt;&lt;/div&gt;&lt;div&gt;&lt;font style=&quot;font-size: 11px;&quot;&gt;&lt;span style=&quot;color: rgb(128, 0, 0);&quot;&gt;.clase&lt;/span&gt;&lt;span style=&quot;color: rgb(59, 59, 59);&quot;&gt; {&lt;/span&gt;&lt;span style=&quot;color: rgb(229, 0, 0);&quot;&gt;color&lt;/span&gt;&lt;span style=&quot;color: rgb(59, 59, 59);&quot;&gt;: &lt;/span&gt;&lt;span style=&quot;color: rgb(4, 81, 165);&quot;&gt;blue&lt;/span&gt;&lt;span style=&quot;color: rgb(59, 59, 59);&quot;&gt;;&lt;/span&gt;&lt;span style=&quot;color: rgb(59, 59, 59);&quot;&gt;}&lt;/span&gt;&lt;/font&gt;&lt;/div&gt;&lt;div&gt;&lt;div style=&quot;color: rgb(59, 59, 59); font-family: Consolas, &amp;quot;Courier New&amp;quot;, monospace; font-weight: normal; font-size: 14px; line-height: 19px; white-space: pre;&quot;&gt;&lt;div&gt;&lt;font style=&quot;font-size: 11px;&quot;&gt;&lt;span style=&quot;color: rgb(128, 0, 0);&quot;&gt;&amp;lt;p&lt;/span&gt;&lt;span style=&quot;color: light-dark(rgb(229, 0, 0), rgb(229, 0, 0));&quot;&gt;&lt;span style=&quot;color: rgb(229, 0, 0);&quot;&gt;&lt;span style=&quot;color: rgb(128, 0, 0);&quot;&gt; &lt;/span&gt;&lt;span style=&quot;color: rgb(229, 0, 0);&quot;&gt;&lt;span style=&quot;color: rgb(128, 0, 0);&quot;&gt;class&lt;/span&gt;&lt;/span&gt;&lt;/span&gt;&lt;/span&gt;&lt;/font&gt;&lt;font style=&quot;font-size: 11px;&quot;&gt;&lt;span style=&quot;color: rgb(59, 59, 59);&quot;&gt;=&lt;/span&gt;&lt;span style=&quot;color: rgb(0, 0, 255);&quot;&gt;&quot;&lt;/span&gt;&lt;span style=&quot;color: rgb(0, 0, 255);&quot;&gt;clase&quot;&lt;/span&gt;&lt;/font&gt;&lt;font style=&quot;font-size: 11px;&quot;&gt;&lt;span style=&quot;color: rgb(128, 0, 0);&quot;&gt;&amp;gt;&lt;/span&gt;&lt;span style=&quot;color: rgb(59, 59, 59);&quot;&gt;Text&lt;/span&gt;&lt;span style=&quot;color: rgb(128, 0, 0);&quot;&gt;&amp;lt;/p&amp;gt;&lt;/span&gt;&lt;/font&gt;&lt;/div&gt;&lt;/div&gt;&lt;/div&gt;&lt;/div&gt;" style="text;html=1;align=center;verticalAlign=middle;resizable=0;points=[];autosize=1;strokeColor=none;fillColor=none;labelBackgroundColor=none;" vertex="1" parent="1">
          <mxGeometry x="435" y="138" width="170" height="70" as="geometry" />
        </mxCell>
        <mxCell id="BZPCGvNJAek9J5CKSZ---14" value="&lt;div align=&quot;center&quot; style=&quot;color: rgb(59, 59, 59); font-family: Consolas, &amp;quot;Courier New&amp;quot;, monospace; font-weight: normal; font-size: 14px; line-height: 19px; white-space: pre;&quot;&gt;&lt;div&gt;&lt;div style=&quot;color: rgb(59, 59, 59); font-family: Consolas, &amp;quot;Courier New&amp;quot;, monospace; font-weight: normal; font-size: 14px; line-height: 19px; white-space: pre;&quot;&gt;&lt;div&gt;&lt;span style=&quot;color: rgb(0, 128, 0);&quot;&gt;&lt;font style=&quot;font-size: 11px;&quot;&gt;&amp;lt;!-- Attribute selector --&amp;gt;&lt;/font&gt;&lt;/span&gt;&lt;/div&gt;&lt;/div&gt;&lt;/div&gt;&lt;div&gt;&lt;div style=&quot;color: rgb(59, 59, 59); font-family: Consolas, &amp;quot;Courier New&amp;quot;, monospace; font-weight: normal; font-size: 14px; line-height: 19px; white-space: pre;&quot;&gt;&lt;div&gt;&lt;font style=&quot;font-size: 11px;&quot;&gt;&lt;span style=&quot;color: rgb(128, 0, 0);&quot;&gt;p&lt;/span&gt;&lt;span style=&quot;color: rgb(59, 59, 59);&quot;&gt;[&lt;/span&gt;&lt;span style=&quot;color: rgb(229, 0, 0);&quot;&gt;part&lt;/span&gt;&lt;span style=&quot;color: rgb(0, 0, 0);&quot;&gt;=&lt;/span&gt;&lt;span style=&quot;color: rgb(163, 21, 21);&quot;&gt;intro&lt;/span&gt;&lt;span style=&quot;color: rgb(59, 59, 59);&quot;&gt;] &lt;/span&gt;&lt;/font&gt;&lt;font style=&quot;font-size: 11px;&quot;&gt;&lt;span style=&quot;color: rgb(59, 59, 59);&quot;&gt;{&lt;/span&gt;&lt;span style=&quot;color: rgb(229, 0, 0);&quot;&gt;color&lt;/span&gt;&lt;span style=&quot;color: rgb(59, 59, 59);&quot;&gt;: &lt;/span&gt;&lt;span style=&quot;color: rgb(4, 81, 165);&quot;&gt;blue&lt;/span&gt;&lt;span style=&quot;color: rgb(59, 59, 59);&quot;&gt;;&lt;/span&gt;&lt;span style=&quot;color: rgb(59, 59, 59);&quot;&gt;}&lt;/span&gt;&lt;/font&gt;&lt;/div&gt;&lt;/div&gt;&lt;/div&gt;&lt;div&gt;&lt;div style=&quot;color: rgb(59, 59, 59); font-family: Consolas, &amp;quot;Courier New&amp;quot;, monospace; font-weight: normal; font-size: 14px; line-height: 19px; white-space: pre;&quot;&gt;&lt;div&gt;&lt;div style=&quot;color: rgb(59, 59, 59); font-family: Consolas, &amp;quot;Courier New&amp;quot;, monospace; font-weight: normal; font-size: 14px; line-height: 19px; white-space: pre;&quot;&gt;&lt;div&gt;&lt;font style=&quot;font-size: 11px;&quot;&gt;&lt;span style=&quot;color: rgb(128, 0, 0);&quot;&gt;&amp;lt;p&lt;/span&gt;&lt;span style=&quot;color: rgb(59, 59, 59);&quot;&gt; &lt;/span&gt;&lt;span style=&quot;color: rgb(229, 0, 0);&quot;&gt;class&lt;/span&gt;&lt;span style=&quot;color: rgb(59, 59, 59);&quot;&gt;=&lt;/span&gt;&lt;span style=&quot;color: rgb(0, 0, 255);&quot;&gt;&quot;clase&quot;&lt;/span&gt;&lt;span style=&quot;color: rgb(59, 59, 59);&quot;&gt; &lt;/span&gt;&lt;span style=&quot;color: rgb(229, 0, 0);&quot;&gt;part&lt;/span&gt;&lt;span style=&quot;color: rgb(59, 59, 59);&quot;&gt;=&lt;/span&gt;&lt;span style=&quot;color: rgb(0, 0, 255);&quot;&gt;&quot;intro&quot;&lt;/span&gt;&lt;span style=&quot;color: rgb(128, 0, 0);&quot;&gt;&amp;gt;&lt;/span&gt;&lt;span style=&quot;color: rgb(59, 59, 59);&quot;&gt;Text&lt;/span&gt;&lt;span style=&quot;color: rgb(128, 0, 0);&quot;&gt;&amp;lt;/p&amp;gt;&lt;/span&gt;&lt;/font&gt;&lt;/div&gt;&lt;/div&gt;&lt;/div&gt;&lt;/div&gt;&lt;/div&gt;&lt;/div&gt;" style="text;html=1;align=center;verticalAlign=middle;resizable=0;points=[];autosize=1;strokeColor=none;fillColor=none;labelBackgroundColor=none;" vertex="1" parent="1">
          <mxGeometry x="395" y="220" width="250" height="70" as="geometry" />
        </mxCell>
        <mxCell id="BZPCGvNJAek9J5CKSZ---15" value="&lt;div align=&quot;center&quot; style=&quot;color: rgb(59, 59, 59); font-family: Consolas, &amp;quot;Courier New&amp;quot;, monospace; font-weight: normal; font-size: 14px; line-height: 19px; white-space: pre;&quot;&gt;&lt;div&gt;&lt;div style=&quot;color: rgb(59, 59, 59); font-family: Consolas, &amp;quot;Courier New&amp;quot;, monospace; font-weight: normal; font-size: 14px; line-height: 19px; white-space: pre;&quot;&gt;&lt;div&gt;&lt;span style=&quot;color: rgb(0, 128, 0);&quot;&gt;&lt;font style=&quot;font-size: 11px;&quot;&gt;&amp;lt;!-- Pseudo-class selector --&amp;gt;&lt;/font&gt;&lt;/span&gt;&lt;/div&gt;&lt;/div&gt;&lt;/div&gt;&lt;div&gt;&lt;div style=&quot;color: rgb(59, 59, 59); font-family: Consolas, &amp;quot;Courier New&amp;quot;, monospace; font-weight: normal; font-size: 14px; line-height: 19px; white-space: pre;&quot;&gt;&lt;div&gt;&lt;font style=&quot;font-size: 11px;&quot;&gt;&lt;span style=&quot;color: rgb(128, 0, 0);&quot;&gt;a:hover&lt;/span&gt;&lt;span style=&quot;color: rgb(59, 59, 59);&quot;&gt; &lt;/span&gt;&lt;/font&gt;&lt;font style=&quot;font-size: 11px;&quot;&gt;&lt;span style=&quot;color: rgb(59, 59, 59);&quot;&gt;{&lt;/span&gt;&lt;span style=&quot;color: rgb(229, 0, 0);&quot;&gt;color&lt;/span&gt;&lt;span style=&quot;color: rgb(59, 59, 59);&quot;&gt;: &lt;/span&gt;&lt;span style=&quot;color: rgb(4, 81, 165);&quot;&gt;blue&lt;/span&gt;&lt;span style=&quot;color: rgb(59, 59, 59);&quot;&gt;;&lt;/span&gt;&lt;span style=&quot;color: rgb(59, 59, 59);&quot;&gt;}&lt;/span&gt;&lt;/font&gt;&lt;/div&gt;&lt;/div&gt;&lt;/div&gt;&lt;div&gt;&lt;div style=&quot;color: rgb(59, 59, 59); font-family: Consolas, &amp;quot;Courier New&amp;quot;, monospace; font-weight: normal; font-size: 14px; line-height: 19px; white-space: pre;&quot;&gt;&lt;div&gt;&lt;div style=&quot;color: rgb(59, 59, 59); font-family: Consolas, &amp;quot;Courier New&amp;quot;, monospace; font-weight: normal; font-size: 14px; line-height: 19px; white-space: pre;&quot;&gt;&lt;div&gt;&lt;font style=&quot;font-size: 11px;&quot;&gt;&lt;span style=&quot;color: rgb(128, 0, 0);&quot;&gt;&amp;lt;a&lt;/span&gt;&lt;span style=&quot;color: rgb(59, 59, 59);&quot;&gt; &lt;/span&gt;&lt;span style=&quot;color: rgb(229, 0, 0);&quot;&gt;href&lt;/span&gt;&lt;span style=&quot;color: rgb(59, 59, 59);&quot;&gt;=&lt;/span&gt;&lt;span style=&quot;color: rgb(0, 0, 255);&quot;&gt;&quot;hola.es&quot;&lt;/span&gt;&lt;span style=&quot;color: rgb(128, 0, 0);&quot;&gt;&amp;gt;&lt;/span&gt;Link&lt;span style=&quot;color: rgb(128, 0, 0);&quot;&gt;&amp;lt;/a&amp;gt;&lt;/span&gt;&lt;/font&gt;&lt;/div&gt;&lt;/div&gt;&lt;/div&gt;&lt;/div&gt;&lt;/div&gt;&lt;/div&gt;" style="text;html=1;align=center;verticalAlign=middle;resizable=0;points=[];autosize=1;strokeColor=none;fillColor=none;labelBackgroundColor=none;" vertex="1" parent="1">
          <mxGeometry x="415" y="300" width="210" height="70" as="geometry" />
        </mxCell>
        <mxCell id="BZPCGvNJAek9J5CKSZ---17" value="&lt;div align=&quot;center&quot; style=&quot;color: rgb(59, 59, 59); font-family: Consolas, &amp;quot;Courier New&amp;quot;, monospace; font-weight: normal; font-size: 14px; line-height: 19px; white-space: pre;&quot;&gt;&lt;div&gt;&lt;div style=&quot;color: rgb(59, 59, 59); font-family: Consolas, &amp;quot;Courier New&amp;quot;, monospace; font-weight: normal; font-size: 14px; line-height: 19px; white-space: pre;&quot;&gt;&lt;div&gt;&lt;span style=&quot;color: rgb(0, 128, 0);&quot;&gt;&lt;font style=&quot;font-size: 11px;&quot;&gt;&amp;lt;!-- ID selector --&amp;gt;&lt;/font&gt;&lt;/span&gt;&lt;/div&gt;&lt;/div&gt;&lt;/div&gt;&lt;div&gt;&lt;div style=&quot;color: rgb(59, 59, 59); font-family: Consolas, &amp;quot;Courier New&amp;quot;, monospace; font-weight: normal; font-size: 14px; line-height: 19px; white-space: pre;&quot;&gt;&lt;div&gt;&lt;font style=&quot;font-size: 11px;&quot;&gt;&lt;span style=&quot;color: rgb(128, 0, 0);&quot;&gt;#miID&lt;/span&gt;&lt;span style=&quot;color: rgb(59, 59, 59);&quot;&gt; &lt;/span&gt;&lt;/font&gt;&lt;font style=&quot;font-size: 11px;&quot;&gt;&lt;span style=&quot;color: rgb(59, 59, 59);&quot;&gt;{&lt;/span&gt;&lt;span style=&quot;color: rgb(229, 0, 0);&quot;&gt;color&lt;/span&gt;&lt;span style=&quot;color: rgb(59, 59, 59);&quot;&gt;: &lt;/span&gt;&lt;span style=&quot;color: rgb(4, 81, 165);&quot;&gt;blue&lt;/span&gt;&lt;span style=&quot;color: rgb(59, 59, 59);&quot;&gt;;&lt;/span&gt;&lt;span style=&quot;color: rgb(59, 59, 59);&quot;&gt;}&lt;/span&gt;&lt;/font&gt;&lt;/div&gt;&lt;/div&gt;&lt;/div&gt;&lt;div&gt;&lt;div style=&quot;color: rgb(59, 59, 59); font-family: Consolas, &amp;quot;Courier New&amp;quot;, monospace; font-weight: normal; font-size: 14px; line-height: 19px; white-space: pre;&quot;&gt;&lt;div&gt;&lt;div style=&quot;color: rgb(59, 59, 59); font-family: Consolas, &amp;quot;Courier New&amp;quot;, monospace; font-weight: normal; font-size: 14px; line-height: 19px; white-space: pre;&quot;&gt;&lt;div&gt;&lt;font style=&quot;font-size: 11px;&quot;&gt;&lt;span style=&quot;color: rgb(128, 0, 0);&quot;&gt;&amp;lt;p&lt;/span&gt;&lt;span style=&quot;color: rgb(59, 59, 59);&quot;&gt; &lt;/span&gt;&lt;span style=&quot;color: rgb(229, 0, 0);&quot;&gt;id&lt;/span&gt;&lt;span style=&quot;color: rgb(59, 59, 59);&quot;&gt;=&lt;/span&gt;&lt;span style=&quot;color: rgb(0, 0, 255);&quot;&gt;&quot;miID&quot;&lt;/span&gt;&lt;span style=&quot;color: rgb(128, 0, 0);&quot;&gt;&amp;gt;&lt;/span&gt;Text&lt;span style=&quot;color: rgb(128, 0, 0);&quot;&gt;&amp;lt;/p&amp;gt;&lt;/span&gt;&lt;/font&gt;&lt;/div&gt;&lt;/div&gt;&lt;/div&gt;&lt;/div&gt;&lt;/div&gt;&lt;/div&gt;" style="text;html=1;align=center;verticalAlign=middle;resizable=0;points=[];autosize=1;strokeColor=none;fillColor=none;labelBackgroundColor=none;" vertex="1" parent="1">
          <mxGeometry x="245" y="138" width="150" height="70" as="geometry" />
        </mxCell>
        <mxCell id="BZPCGvNJAek9J5CKSZ---18" value="5" style="whiteSpace=wrap;html=1;aspect=fixed;rounded=1;fillColor=light-dark(#CCCCCC,#EDEDED);strokeColor=light-dark(#999999,#EDEDED);fontColor=light-dark(#808080,#EDEDED);" vertex="1" parent="1">
          <mxGeometry x="100" y="262" width="40" height="40" as="geometry" />
        </mxCell>
        <mxCell id="BZPCGvNJAek9J5CKSZ---19" value="&lt;font style=&quot;font-size: 9px;&quot; face=&quot;Consolas, Courier New, monospace&quot;&gt;Universal selector&lt;/font&gt;" style="text;html=1;align=center;verticalAlign=middle;resizable=0;points=[];autosize=1;strokeColor=none;fillColor=none;fontSize=11;spacing=0;" vertex="1" parent="1">
          <mxGeometry x="65" y="240" width="110" height="20" as="geometry" />
        </mxCell>
        <mxCell id="BZPCGvNJAek9J5CKSZ---20" value="&lt;div style=&quot;color: rgb(59, 59, 59); font-family: Consolas, &amp;quot;Courier New&amp;quot;, monospace; font-weight: normal; font-size: 14px; white-space: pre; line-height: 100%;&quot;&gt;&lt;div&gt;&lt;font style=&quot;font-size: 9px; line-height: 100%;&quot;&gt;&lt;span style=&quot;color: rgb(128, 0, 0);&quot;&gt;*&lt;/span&gt;&lt;span style=&quot;color: rgb(59, 59, 59);&quot;&gt; { &lt;/span&gt;&lt;span style=&quot;color: rgb(229, 0, 0);&quot;&gt;margin&lt;/span&gt;&lt;span style=&quot;color: rgb(59, 59, 59);&quot;&gt;: &lt;/span&gt;&lt;span style=&quot;color: rgb(9, 134, 88);&quot;&gt;0&lt;/span&gt;&lt;span style=&quot;color: rgb(59, 59, 59);&quot;&gt;; }&lt;/span&gt;&lt;span style=&quot;color: rgb(0, 128, 0);&quot;&gt;&lt;font&gt;&lt;br&gt;&lt;/font&gt;&lt;/span&gt;&lt;/font&gt;&lt;/div&gt;&lt;div&gt;&lt;font style=&quot;font-size: 9px; line-height: 100%;&quot;&gt;&lt;span style=&quot;color: rgb(0, 128, 0);&quot;&gt;&lt;font&gt;&amp;lt;!-- no tiene HTML (afecta&lt;/font&gt;&lt;/span&gt;&lt;/font&gt;&lt;/div&gt;&lt;div&gt;&lt;font style=&quot;font-size: 9px; line-height: 100%;&quot;&gt;&lt;span style=&quot;color: rgb(0, 128, 0);&quot;&gt;&lt;font&gt;a todos los elementos --&amp;gt;&lt;/font&gt;&lt;/span&gt;&lt;/font&gt;&lt;/div&gt;&lt;/div&gt;" style="text;html=1;align=center;verticalAlign=middle;resizable=0;points=[];autosize=1;strokeColor=none;fillColor=none;spacing=-6;labelBackgroundColor=none;" vertex="1" parent="1">
          <mxGeometry x="50" y="303" width="140" height="40" as="geometry" />
        </mxCell>
      </root>
    </mxGraphModel>
  </diagram>
</mxfile>
